<svg version="1" xmlns="http://www.w3.org/2000/svg" width="1365.333" height="1365.333" viewBox="0 0 1024.000000 1024.000000"><path d="M49.5 124.1c-5.6 1.1-18.3 6.9-22.3 10.2C21 139.5 14.7 147 11.6 153c-7 13.4-6.5-3.5-6.6 223.5-.1 112.7-.3 209.3-.5 214.5-.6 13.8-2 29.7-3.2 35-1.4 6.9-1 21.8.8 28.9 2 7.7 6.2 16.9 9.1 20.1 1 1.1 1.8 2.2 1.8 2.6 0 .9 13.2 13.4 14.2 13.4.4 0 2.9 1.3 5.5 2.8 8.6 5 14.8 6.5 27.5 6.8 10.5.2 12.6-.1 19.6-2.5 12.9-4.4 22.7-11.2 29.8-20.7 1.6-2.1 3.1-4.1 3.5-4.4 1.3-1.1 7.7-16.2 7.9-18.5 0-.3 0-.6.1-.8 1.1-3.8 1.5-19.8.5-25.7-.5-3.2-1.2-9.1-2.1-19.5-2-21.1-2.9-121.6-1.2-127 2-6.4 7.9-11.9 14-13.1 1.1-.2 8.1-.3 15.6-.3h15.6c26.9-.3 36.3.6 46.5 4.6.8.4 1.7.7 2 .8 2.6.7 8.9 4 13.7 7.1 5.3 3.3 12.2 9.9 24.1 22.6 4.2 4.5 14.9 10.9 20.7 12.3 1.7.4 3.9.9 5 1.2 1.1.2 5 .4 8.7.4 13 .1 27.8-6.2 35.2-15.1 10.2-12.1 16-15.4 25.9-14.9 6.6.3 12.2 3 17 8.3 4.4 4.7 5.8 9.3 6.3 19.4.2 4 .6 7.7.9 8.2.4.6.9 2.3 1.1 3.8.6 3.3 6 14.7 8.3 17.4 9.4 11.5 20.6 19.2 30.8 21.3 2.1.5 4.5 1 5.3 1.2 2.5.7 17.3.6 20.9-.1 1.8-.4 4.9-1.3 6.7-2.1 1.9-.8 3.6-1.3 3.7-1.2.2.1 3.4-1.6 7.1-3.8 8.2-4.8 17.1-14.1 21.1-22.2 1.6-3.2 3-6.3 3.1-6.8.2-.6.9-3.3 1.7-6 .8-3 1.5-11 1.7-19.5.2-14.3.3-16.6 1.4-24.5 1-7.5 5.9-24.8 7.6-27 1.8-2.4 6.3-16.6 7.4-23.5 1.7-10.8 1.1-22.5-1.8-32.5-2-7.2-5-14.9-5.8-15.3-.5-.2-.8-1.1-.8-2.1 0-.9-.5-2.2-1.2-2.9-.7-.7-.9-1.2-.5-1.2s.1-1.4-.8-3c-.9-1.7-1.3-3-1.1-3 .3 0 0-1.5-.6-3.3-1.1-3.5-1.4-5-2.3-11.7-.4-2.5-.8-5.6-1.1-7-.2-1.4-.4-41.7-.4-89.5-.1-85.1-.1-87.2-2.1-94-2.4-7.8-4.9-13.1-9.4-19-3.8-5.1-11.6-12.5-13.2-12.5-.7 0-1.3-.4-1.3-.9 0-.7-8.1-4.8-11-5.6-.3-.1-1.2-.4-2-.7-7.7-2.8-17.8-3.5-27.1-1.8-6.5 1.2-17.3 5.4-19.7 7.7-.7.7-1.7 1.3-2.1 1.3-1.7 0-12 10.8-15.3 16.1-3.4 5.2-7.1 13.9-8.4 19.6-.3 1.5-.7 41.5-.8 88.8-.2 47.3-.6 87.9-1 90.2-.9 5.2-7.5 11.6-13.4 12.9-2 .5-52.8.9-112.8.9-122.2-.1-112.9.5-119.6-7.4-3.6-4.2-4-6.2-4.1-17.6-.1-11.2 1.1-20.2 4.4-32.5 2.9-10.7 3.4-14.9 3.3-29-.1-11.7-.4-15.8-1.8-22-.4-1.4-.8-4.3-1.1-6.5-.3-2.2-.7-4.7-1-5.5-.2-.8-.7-3.9-1-6.9-.4-3-.8-6.2-1-7.1-.6-3.3-1.7-23.8-2-39.5-.2-8.8-.6-17-.9-18.3-.4-1.2-.8-3.2-1.1-4.3-.2-1.2-1.7-4.9-3.3-8.3-1.6-3.3-3-6.5-3.3-7-.5-1.1-4.1-5.3-8.4-10-6.3-6.7-16.1-12.4-25.6-14.9-6.4-1.6-18.4-1.9-25.4-.6zM624 124.6c-10.1 2.7-19.4 7.9-26.1 14.5-3.9 3.9-11.8 16-12.3 18.9-.1.3-.4.9-.8 1.5-.9 1.5-2.8 11.5-3 16-.2 7.3 1 15.5 3.5 23 .9 2.7 1.9 6.1 2.2 7.5 1.8 8.8 3.6 17.9 4 20.5.2 1.6.4 3 .5 3 .2 0 .6 2.4 2.1 12 1.5 9.9 1.9 35.6.7 45-.4 3.8-1.1 9.2-1.4 12-.8 6.3-1.2 9-1.4 9-.1 0-.3 1.1-.5 2.5-.7 6.4-1.9 11.9-4.6 21.8-3.5 12.8-3.4 12.4-5.3 18.7-1.7 5.4-2.3 13.2-3.1 41-.3 9.9-.8 22.3-1.2 27.5-.3 5.2-.6 10.5-.6 11.7-.1 1.3-.3 2.3-.6 2.3-.4 0-.6 2.4-.6 5.3-.1 2.8-.4 8.1-.9 11.7-.4 3.6-1 8.1-1.2 10-.3 3.3-1.2 9-2 13.5-.2 1-.6 3.7-.9 6-.3 2.2-1.1 6.5-1.7 9.5-.6 3-1.2 6.2-1.3 7-.1.8-.7 4.2-1.4 7.5-3.6 19.5-3.2 39.3 1.5 61 2 9.3 2 9.1 4.3 15.7 1.1 3.2 1.7 5.8 1.4 5.8-.3 0 0 .7.7 1.5s1 1.5.7 1.5c-.3 0 .1 2.2.8 4.8.8 2.7 1.7 7.5 2 10.7.4 3.2.8 6.2 1 6.5.2.4.5 16.3.6 35.3 0 19.1.5 34.9.9 35.2.4.2 1 2.4 1.4 4.7.9 5.4 6.6 17.2 10.6 21.8 1.7 1.9 4.1 4.7 5.3 6.2 1.2 1.5 2.7 2.8 3.2 2.8.6 0 1.5.8 2.1 1.7.7 1 3.3 2.9 6 4.3s5.1 2.8 5.4 3.1c.7.9 12.9 4.6 17.5 5.4 6.7 1.1 14 .8 22.5-1 6.3-1.3 18.5-8.7 23.8-14.5 9.7-10.6 12.7-19.1 13.4-38.8.2-4.2.6-6.2 1.5-6.2.7 0 1.3.4 1.3.8 0 2.7 21.1 25.8 22.4 24.5.3-.3.6-.1.6.5 0 1.2 13.4 11.2 15 11.2.5 0 1 .3 1 .8 0 .8.1.9 13.7 7.5 13.3 6.6 15 7.3 26.8 10.6 8 2.2 11.3 2.8 23.6 4.5 1.7.3 3.3.7 3.6 1 .3.3 1.4.1 2.4-.4 1-.6 2-.6 2.3-.2.5.9 26.7.7 35.5-.2 6-.6 11.4-1.4 15.1-2.1 1.4-.3 3.9-.7 5.5-1 3.4-.6 6.9-1.3 10.5-2.1 1.4-.3 5.4-.7 9-.8 13.3-.6 21.2 7.1 21.3 20.9.1 7-.8 20.9-2 29.5-.5 4.3-.6 7.9-.2 13.7.3 4.8 4.7 13.1 9.6 17.8 12.8 12.7 32.9 13.2 45.3 1.2 5.4-5.2 6.1-6.1 8.2-10.7 2.9-6.2 3.7-12.1 2.6-20-2.7-19.1-2.8-44.7-.4-55.5.2-1.1.5-2 .6-2 .1 0 .3-1.1.5-2.5.4-3.7 4.1-14.1 8.1-22.8 4.7-10.1 6.5-16.3 8.8-30.7 1.2-7.2 4.2-18 7-25.3 3.2-8.1 8.8-19.5 10.1-20.4.6-.4.7-.8.2-.8-.4 0-.1-1 .7-2.3.8-1.2 1.5-2.5 1.6-2.9 0-.5.7-2.3 1.4-4 3.4-7.8 4.4-10.5 5.6-14.3.6-2.2 1.4-4.7 1.7-5.5.4-.8.7-1.7.7-2 .1-.3.4-1 .7-1.5.6-1 4.6-17.2 5.5-22.5.3-1.4.7-3.6 1-5 1.1-5.7 2.2-13.8 3.1-23.5 1-10.2 1-45.7 0-55.5-.6-6.5-1.1-10-3.1-22.5-.2-1.6-2-10-3.1-15-.7-3.1-1.9-7.1-2.4-8-.3-.6-.7-1.9-.8-3-.4-2.2-3.9-12.8-5.3-16-.5-1.1-1.9-4.4-3-7.4-3.8-9.9-13.3-27.8-16-30.1-.3-.3-1.6-1.9-2.9-3.5-4-5.3-12.5-13.9-20.1-20.5-4.1-3.5-8-6.9-8.6-7.4-.6-.6-2.3-2-3.8-3.1-1.6-1.1-3.3-2.5-4-3-.6-.6-3.8-3.3-7.1-6-6.1-5.1-13.9-12.7-21.1-20.6-4.4-4.8-10-9.9-11-9.9-.3 0-2-1.1-3.7-2.4-1.8-1.4-3.4-2.5-3.7-2.5-.3 0-3.4-1.3-7-3-10.6-4.9-31.6-10.2-46.5-11.8-2.2-.2-5.8-.6-8-.9-13-1.6-49.8-.5-51.8 1.5-.5.5-1.5.7-2.2.4-1.7-.6-18.6 3.9-27.3 7.3-6.7 2.6-20.2 9.2-21.2 10.3-.8 1-6.4 4.2-8.2 4.8-1 .3-1.8.9-1.8 1.3s-1.5 1.7-3.4 2.8c-7 4.1-24.2 21-30.1 29.6l-3.9 5.7-2.4-4.8c-2.3-4.9-7.8-19.6-8.7-23.6-.3-1.2-.9-4.2-1.5-6.7s-1.2-6.3-1.5-8.5c-.2-2.2-.7-5.1-1-6.5-2.3-10.4-2.3-40.8 0-54.5.5-3 1.7-9.5 2-10.5 0-.3.5-2.3 1-4.5.4-2.2.9-4.5 1-5 .8-3.3 3.8-12.2 6.9-20.3 4.2-10.9 6.3-26 4.3-31.2-.3-.8-.8-2.9-1-4.5-.6-3.9-4.4-13-7.4-17.4-7.2-10.6-16.6-17.8-29-22.3-7.5-2.6-22.6-3.2-30.3-1.2zm192.7 259.5c8.2 1.6 8.7 1.7 13.1 3.3 4.5 1.6 14.1 6.6 16.8 8.8 7.1 5.6 19.4 20.4 19.4 23.3 0 .3.8 1.8 1.8 3.3 1.1 1.5 3.2 4.7 4.8 7.2 2.8 4.4 10.4 15 11.4 16 .3.3 1.8 2.1 3.4 4 1.5 1.9 4.9 5.7 7.5 8.5 6.3 6.7 12.1 14.5 12.1 16.1 0 .8.3 1.4.8 1.4.8 0 4.5 9.3 6.3 16 1.4 5.4 1.8 23.2.7 31.5-1.6 11.6-1.9 13.7-2.8 16.1-.5 1.3-.8 2.4-.5 2.4.2 0-.4 2.4-1.4 5.2-1 2.9-1.9 5.6-2 6-1.6 6.4-9.8 22.2-15.9 30.7-6.6 9.4-19.6 21.9-29.5 28.5-4.6 3.1-8.9 5.6-9.5 5.6-.6 0-1.2.4-1.4.9-.3.8-17.3 7.9-20.6 8.6-.9.1-3.7.8-6.2 1.5-6.3 1.7-8.9 2-22.3 2.4-24.7.7-46.1-5.8-66.7-20.3-5.5-3.9-21.1-18.6-24.6-23.2-3.9-5.2-8.4-12-8.4-12.8 0-.5-.4-1.1-.8-1.3-2.5-1-11.7-24.4-13.8-35.1-.2-1-.5-2.6-.8-3.5-2.1-7-2.8-37.9-1.2-49.2 3-20.8 11.5-42.1 22.9-57.1 10-13.3 23.7-25.2 37.3-32.4 7.8-4.2 18.4-8.6 18.4-7.8 0 .3.6.1 1.3-.5 1.1-.9 8.2-2.7 15.7-3.8 1.9-.3 3.6-.7 3.8-.9.8-.7 26.6-.2 30.9.6zM414.7 599.6c-2.6.7-6.3 1.9-8.1 2.8-1.9.9-3.7 1.6-4 1.6-.7 0-2.4 1.3-5.7 4.2-1 1-2.3 1.8-2.9 1.8-.5 0-1 .3-1 .7 0 .5-1.4 2.4-3.1 4.3-4.8 5.4-8.7 13.7-10.5 22.5-.5 2.4-1.6 43.7-1.7 66.5-.1 12.2.2 17.3 1.2 19.5.8 1.6 1.5 3.3 1.5 3.6.6 4.1 8.9 14.9 15.6 20.3 7 5.6 18.6 9.4 28.6 9.4 12.6-.1 24-4.6 32.8-13.1 4.4-4.3 11.3-13.5 10.8-14.4-.1-.2.5-1.7 1.2-3.5 2.8-6.8 3.3-13.7 2.2-30.3-.4-5-.8-20.3-1-34-.5-29.7-1.3-33.6-9.8-45-4.9-6.6-16.5-15.5-18.1-13.8-.4.3-.7.1-.7-.5 0-.9-1.2-1.3-8-2.9-4.2-1-15.1-.8-19.3.3zM57.7 747.6c-.1.1-2.1.4-4.4.7-6.6.9-9.1 1.8-16.4 5.3-7.3 3.6-19.2 14.3-21.9 19.9-.8 1.6-1.8 3.2-2.1 3.5-.3.3-1.6 3.9-3 8-2.5 7.9-3.2 19.8-1.6 28.8 1.2 7.1 7.6 18.8 13.7 25.1 6.8 7.1 10.9 9.9 20 13.5 11.8 4.7 24.3 4.9 37.1.5 7.7-2.6 15.2-7.4 20.8-13.2 4.2-4.4 10.5-12.7 9.6-12.7-.3 0 .3-1.7 1.3-3.8 1.8-3.4 2.6-5.9 3.9-12.2 1.2-5.6.4-17.8-1.6-24.6-6.7-22.4-26.8-37.9-50.4-38.8-2.7-.1-4.9-.1-5 0zM930 844.2c-19.3 3.8-29.5 22.2-22 39.6 2.5 5.8 10.5 13.8 14.9 14.8 1.4.4 3.1 1 3.7 1.5.5.5 4.4.7 8.5.5 11.7-.5 19.7-5.9 24.8-16.6 6.2-13.1.6-29.9-12.2-36.7-3.4-1.8-3.7-1.9-8.2-2.8-1.6-.3-3.4-.7-4-.9-.5-.1-3 .1-5.5.6z"/></svg>