<svg id="Layer_1" data-name="Layer 1" xmlns="http://www.w3.org/2000/svg" viewBox="0 0 128 128"><rect x="3.34" y="58.37" width="23.65" height="4.76" rx="2.38"/><rect x="17.64" y="92.9" width="23.65" height="4.76" rx="2.38" transform="translate(-58.74 48.75) rotate(-45)"/><rect x="86.7" y="92.9" width="23.65" height="4.76" rx="2.38" transform="translate(100.82 232.33) rotate(-135)"/><rect x="101" y="58.37" width="23.65" height="4.76" rx="2.38" transform="translate(225.66 121.51) rotate(180)"/><rect x="86.7" y="23.84" width="23.65" height="4.76" rx="2.38" transform="translate(186.74 -24.9) rotate(135)"/><rect x="52.17" y="9.54" width="23.65" height="4.76" rx="2.38" transform="translate(75.92 -52.08) rotate(90)"/><rect x="17.64" y="23.84" width="23.65" height="4.76" rx="2.38" transform="translate(27.18 -13.16) rotate(45)"/><path d="M73.42,102.33H54.58a6.79,6.79,0,0,1-6.7-5.9,27.19,27.19,0,0,0-7-14.71,31.25,31.25,0,1,1,46.16,0,27.11,27.11,0,0,0-7,14.71A6.81,6.81,0,0,1,73.42,102.33ZM64,34.18A26.47,26.47,0,0,0,44.44,78.5,31.9,31.9,0,0,1,52.6,95.79a2,2,0,0,0,2,1.78H73.42a2,2,0,0,0,2-1.78A31.9,31.9,0,0,1,83.56,78.5,26.47,26.47,0,0,0,64,34.18Z"/><path d="M44.57,63.14a2.38,2.38,0,0,1-2.38-2.39A21.84,21.84,0,0,1,64,38.94a2.39,2.39,0,0,1,0,4.77,17.06,17.06,0,0,0-17,17A2.38,2.38,0,0,1,44.57,63.14Z"/><rect x="50.5" y="106.09" width="27.01" height="4.76" rx="2.38"/><rect x="50.5" y="114.61" width="27.01" height="4.76" rx="2.38"/><rect x="56.21" y="123.14" width="15.58" height="4.76" rx="2.38"/></svg>