<svg id="Layer_1" xmlns="http://www.w3.org/2000/svg" viewBox="0 0 128 128"><path fill="#ffff88" d="M63.94,29.39A31.24,31.24,0,0,0,40.86,81.7a27.17,27.17,0,0,1,7,14.72,6.82,6.82,0,0,0,6.71,5.9H73.36a6.82,6.82,0,0,0,6.7-5.9A27.19,27.19,0,0,1,87,81.7,31.25,31.25,0,0,0,63.94,29.39Zm2.38,11.92a2.39,2.39,0,0,1-2.38,2.38,17.07,17.07,0,0,0-17,17.05,2.39,2.39,0,0,1-4.77,0A21.84,21.84,0,0,1,63.94,38.93,2.38,2.38,0,0,1,66.32,41.31Z"/><path fill="#ffffff" d="M75.06,106.08H52.81a2.38,2.38,0,0,0,0,4.76H75.06a2.38,2.38,0,1,0,0-4.76Z"/><path fill="#ffffff" d="M75.06,114.6H52.81a2.38,2.38,0,0,0,0,4.76H75.06a2.38,2.38,0,0,0,0-4.76Z"/><path fill="#ffffff" d="M69.35,123.12H58.53a2.39,2.39,0,1,0,0,4.77H69.35a2.39,2.39,0,0,0,0-4.77Z"/></svg>
