<svg xmlns="http://www.w3.org/2000/svg" viewBox="0 0 128 128"><g id="Layer_2" data-name="Layer 2"><g id="Layer_1-2" data-name="Layer 1"><path d="M128,71.17V56.83a3,3,0,0,0-2.54-3L113.6,52A2,2,0,0,1,112,50.56a49.86,49.86,0,0,0-4.56-11,2,2,0,0,1,.11-2.17l7.08-9.7a3,3,0,0,0-.3-3.89L104.19,13.68a3,3,0,0,0-3.89-.3l-9.7,7.08a2,2,0,0,1-2.17.11,49.86,49.86,0,0,0-11-4.56A2,2,0,0,1,76,14.4L74.13,2.54a3,3,0,0,0-3-2.54H56.83a3,3,0,0,0-3,2.54L52,14.4A2,2,0,0,1,50.56,16a49.86,49.86,0,0,0-11,4.56,2,2,0,0,1-2.17-.11l-9.7-7.08a3,3,0,0,0-3.89.3L13.68,23.81a3,3,0,0,0-.3,3.89l7.08,9.7a2,2,0,0,1,.11,2.17,49.86,49.86,0,0,0-4.56,11A2,2,0,0,1,14.4,52L2.54,53.87a3,3,0,0,0-2.54,3V71.17a3,3,0,0,0,2.54,3L14.4,76A2,2,0,0,1,16,77.44a49.86,49.86,0,0,0,4.56,11,2,2,0,0,1-.11,2.17l-7.08,9.7a3,3,0,0,0,.3,3.89l10.13,10.13a3,3,0,0,0,3.89.3l9.7-7.08a2,2,0,0,1,2.17-.11,49.86,49.86,0,0,0,11,4.56A2,2,0,0,1,52,113.6l1.85,11.86a3,3,0,0,0,3,2.54H71.17a3,3,0,0,0,3-2.54L76,113.6A2,2,0,0,1,77.44,112a49.86,49.86,0,0,0,11-4.56,2,2,0,0,1,2.17.11l9.7,7.08a3,3,0,0,0,3.89-.3l10.13-10.13a3,3,0,0,0,.3-3.89l-7.08-9.7a2,2,0,0,1-.11-2.17,49.86,49.86,0,0,0,4.56-11A2,2,0,0,1,113.6,76l11.86-1.85A3,3,0,0,0,128,71.17ZM64,92.79A28.79,28.79,0,1,1,92.78,64,28.79,28.79,0,0,1,64,92.79Z"/></g></g></svg>
