<svg xmlns="http://www.w3.org/2000/svg" viewBox="0 0 270.34 380.82"><defs><style>.cls-1{fill:#fff;opacity:0;}</style></defs><g id="Layer_2" data-name="Layer 2"><g id="Layer_1-2" data-name="Layer 1"><polygon id="background" class="cls-1" points="270.34 380.82 0 380.82 0 0 171.7 0 270.34 98.65 270.34 380.82"/><path fill="#888888" id="object" d="M263,90.71,179.64,7.32A25,25,0,0,0,162,0H25A25,25,0,0,0,0,25V355.82a25,25,0,0,0,25,25H245.34a25,25,0,0,0,25-25V108.38A25,25,0,0,0,263,90.71Zm-20.34,7.94H184.31A12.63,12.63,0,0,1,171.7,86V27.67Zm2.66,262.17H25a5,5,0,0,1-5-5V25a5,5,0,0,1,5-5H151.7V86a32.65,32.65,0,0,0,32.61,32.61h66V355.82A5,5,0,0,1,245.34,360.82Z"/></g></g></svg>
