<svg xmlns="http://www.w3.org/2000/svg" viewBox="0 0 512.02 389.09"><defs><style>.cls-1{fill:#148cff;}</style></defs><g id="Layer_2" data-name="Layer 2"><g id="Layer_1-2" data-name="Layer 1"><path class="cls-1" d="M249.22,147.5a38.83,38.83,0,0,1-3.42,16,57.51,57.51,0,0,0-5.32,23.62v7.13a28.13,28.13,0,0,1-28.13,28.14h0a28.13,28.13,0,0,1-28.13-28.14v-.32c-.17-11.77-15.36-16.42-22.27-6.9a24.67,24.67,0,0,1-39.58.51,38.72,38.72,0,0,0-30.8-15H68.12a9.36,9.36,0,0,0-9.36,9.36V216A282.51,282.51,0,0,0,61,254.61a31,31,0,0,1,.29,4.23,30.63,30.63,0,1,1-61-4.28,196,196,0,0,0,2.19-27V28.14c0-.6,0-1.19.07-1.77A28.13,28.13,0,0,1,31.42,0C46.75.45,58.76,13.4,58.76,28.73V32.6A166.35,166.35,0,0,0,62,66.08a51.13,51.13,0,0,1-.89,24.26A57.35,57.35,0,0,0,58.76,106v3.84a9.37,9.37,0,0,0,9.36,9.37H174.85a9.36,9.36,0,0,0,9.36-9.36V28.71c0-15.39,12.12-28.36,27.51-28.7a28.14,28.14,0,0,1,28.76,28.13v79.74a57.6,57.6,0,0,0,5.32,23.64A38.71,38.71,0,0,1,249.22,147.5Z"/><circle class="cls-1" cx="30.63" cy="339.52" r="27.12"/><path class="cls-1" d="M236.2,294.71a23.9,23.9,0,0,1-47.75-1.45c0-.39,0-.77,0-1.16.41-8.73.93-17.45.93-26.19v-4.68c0-12.43,9.66-23,22.09-23.47a22.93,22.93,0,0,1,23.78,22.92V264c0,9.06.06,18.14.86,27.16A24,24,0,0,1,236.2,294.71Z"/><circle class="cls-1" cx="467.05" cy="374.79" r="14.3"/><path class="cls-1" d="M498.68,133.7c-8.88-17.21-26.7-25.23-37.1-37.84-9.05-11-25.1-14.32-39.33-16a110.58,110.58,0,0,0-12.71-.73q-21.63,0-38.32,9.37t-25.41,23.12h0a71.92,71.92,0,0,1-6.38-18.06l-.09-.45A97.11,97.11,0,0,1,340.5,48.4h0a78.26,78.26,0,0,1,3.55-10.08,27.66,27.66,0,1,0-53.19-10.65,28,28,0,0,0,1.21,8.14,93.54,93.54,0,0,1,2.69,10.41l1.54,8.25a97.27,97.27,0,0,1,.7,31.39l-.51,3.63A130.29,130.29,0,0,1,291.05,113a28.34,28.34,0,0,0-1.47,9c0,11.14-.44,22.28-1.43,33.37a299.29,299.29,0,0,1-4.73,33,78.19,78.19,0,0,0,2.48,40.19,68,68,0,0,1,3.68,21.51v23.74a30.83,30.83,0,0,0,30.84,30.84,25.43,25.43,0,0,0,24.3-18c.72-2.32,1.09-11.27,1.09-13.83a54.76,54.76,0,0,0,6.33,8.45,58,58,0,0,0,4.15,4.15A75.16,75.16,0,0,0,371,295.73q16.86,9.18,38.52,9.18a104.55,104.55,0,0,0,22.18-2.31,82.46,82.46,0,0,1,8.7-1.39,9.82,9.82,0,0,1,10.9,9.75h0a142.73,142.73,0,0,1-1.35,17.5,15.5,15.5,0,0,0-.13,2.06,16.69,16.69,0,0,0,33.35,1.09,17.1,17.1,0,0,0-.22-4A94.49,94.49,0,0,1,481.75,311v-.77a52.4,52.4,0,0,1,5.72-24.35,37.65,37.65,0,0,0,3.82-12.66,66.86,66.86,0,0,1,7.33-22.53l.06-.13q12-23,13.2-51.86c.1-2.2.14-4.42.14-6.66Q512,159.55,498.68,133.7ZM457.87,192q0,18.33-7.91,32.49a58.2,58.2,0,0,1-27.62,25.35A55.11,55.11,0,0,1,400,254.5a54.54,54.54,0,0,1-28.31-7.92A59.91,59.91,0,0,1,345.81,214a74.27,74.27,0,0,1,0-44,58.81,58.81,0,0,1,4.59-10.5,57.07,57.07,0,0,1,37.25-28.21A54.84,54.84,0,0,1,400,130a59.65,59.65,0,0,1,8.92.67,32.49,32.49,0,0,1,23.53,16.47,99.4,99.4,0,0,0,15.86,21.56,33.32,33.32,0,0,1,9.6,22.81Z"/></g></g></svg>